<svg width="26" height="26" viewBox="0 0 26 26" fill="none" xmlns="http://www.w3.org/2000/svg">
<path d="M16.1605 2C20.4899 2 23.9996 5.56395 23.9996 9.96015C23.9995 14.3563 20.4898 17.9199 16.1605 17.9199H12.9998C10.4162 17.9199 8.32185 15.7933 8.32185 13.1697C8.32185 10.5462 10.4162 8.4195 12.9998 8.4195H16.1605C16.9985 8.4195 17.6777 9.10928 17.6777 9.96015C17.6777 10.811 16.9984 11.5008 16.1605 11.5008H12.9998C12.092 11.5008 11.3563 12.2479 11.3563 13.1697C11.3563 14.0915 12.092 14.8386 12.9998 14.8386H16.1605C18.814 14.8386 20.9651 12.6545 20.9652 9.96015C20.9652 7.26571 18.814 5.0813 16.1605 5.0813H12.8324C8.52572 5.08138 5.0345 8.62652 5.03443 12.9997C5.03443 17.4825 8.69574 21.0717 13.1076 20.9136L16.4469 20.7936C18.3137 20.7267 20.1481 20.2789 21.8408 19.4768C22.6001 19.117 23.503 19.4505 23.8574 20.2215C24.2116 20.9925 23.8832 21.9094 23.1239 22.2692C21.0622 23.2462 18.8277 23.7915 16.5539 23.873L13.2146 23.993C7.08603 24.2127 2 19.2269 2 12.9997C2.00008 6.92477 6.84985 2.00008 12.8324 2H16.1605Z" fill="#1F1F1F"/>
</svg>
