<svg width="221" height="221" viewBox="0 0 221 221" fill="none" xmlns="http://www.w3.org/2000/svg">
<path d="M31.2722 182.629C33.3477 182.629 35.3388 183.453 36.8064 184.921C38.2738 186.388 39.0982 188.379 39.0984 190.454V198.03C39.0984 200.106 38.2738 202.096 36.8064 203.563C35.3388 205.031 33.3477 205.856 31.2722 205.856H23.697C21.6215 205.856 19.6304 205.031 18.1628 203.563C16.6956 202.096 15.8709 200.106 15.8708 198.03V190.454C15.871 188.379 16.6955 186.388 18.1628 184.921C19.6304 183.453 21.6216 182.629 23.697 182.629H31.2722Z" fill="#1F1F1F"/>
<path fill-rule="evenodd" clip-rule="evenodd" d="M46.4236 167.478C48.499 167.478 50.4902 168.302 51.9578 169.77C53.4252 171.237 54.2496 173.227 54.2498 175.303V213.182C54.2498 215.257 53.4253 217.248 51.9578 218.716C50.4902 220.183 48.499 221.008 46.4236 221.008H8.54565C6.47024 221.008 4.47905 220.183 3.01147 218.716C1.54397 217.248 0.719482 215.257 0.719482 213.182V175.303C0.719613 173.227 1.54407 171.237 3.01147 169.77C4.47905 168.302 6.47021 167.478 8.54565 167.478H46.4236ZM8.79565 212.932H46.1736V175.553H8.79565V212.932Z" fill="#1F1F1F"/>
<path d="M65.363 182.629C66.4339 182.629 67.4613 183.054 68.2185 183.812C68.9757 184.569 69.4011 185.596 69.4011 186.667V190.21C71.3859 190.273 73.2767 191.089 74.6853 192.497C76.095 193.907 76.9084 195.8 76.9705 197.786C78.9575 197.848 80.8504 198.662 82.2605 200.072C83.6691 201.481 84.4833 203.372 84.5466 205.356H88.0906C89.1614 205.356 90.1888 205.782 90.946 206.539C91.703 207.296 92.1285 208.323 92.1287 209.394C92.1287 210.464 91.7032 211.492 90.946 212.249C90.1888 213.006 89.1615 213.432 88.0906 213.432H84.5525V216.97C84.5525 218.041 84.1271 219.068 83.3699 219.825C82.6128 220.582 81.586 221.008 80.5154 221.008C79.4446 221.008 78.4171 220.582 77.6599 219.825C76.9028 219.068 76.4773 218.041 76.4773 216.97V205.856H69.1511C67.0757 205.856 65.0855 205.031 63.6179 203.563C62.1505 202.096 61.3259 200.106 61.3259 198.03V186.667C61.326 185.596 61.7514 184.569 62.5085 183.812C63.2657 183.055 64.2924 182.629 65.363 182.629Z" fill="#1F1F1F"/>
<path d="M103.242 212.932C104.313 212.932 105.34 213.357 106.097 214.114C106.855 214.871 107.28 215.899 107.28 216.97C107.28 218.041 106.855 219.068 106.097 219.825C105.34 220.582 104.313 221.008 103.242 221.008H95.6667C94.596 221.008 93.5685 220.582 92.8113 219.825C92.0542 219.068 91.6287 218.041 91.6287 216.97C91.6287 215.899 92.0541 214.871 92.8113 214.114C93.5685 213.357 94.596 212.932 95.6667 212.932H103.242Z" fill="#1F1F1F"/>
<path d="M171.424 167.478C172.494 167.478 173.522 167.903 174.279 168.66C175.036 169.417 175.461 170.444 175.462 171.515C175.462 172.586 175.036 173.613 174.279 174.37C173.522 175.127 172.494 175.553 171.424 175.553C170.353 175.553 169.326 175.127 168.569 174.37C167.812 173.613 167.386 172.585 167.386 171.515C167.387 170.444 167.812 169.417 168.569 168.66C169.326 167.903 170.353 167.478 171.424 167.478Z" fill="#1F1F1F"/>
<path fill-rule="evenodd" clip-rule="evenodd" d="M190.363 114.447C192.438 114.447 194.43 115.272 195.897 116.739C197.306 118.148 198.12 120.038 198.183 122.022H201.727C202.798 122.023 203.826 122.448 204.583 123.205C205.34 123.962 205.765 124.99 205.765 126.061C205.765 127.131 205.34 128.159 204.583 128.916C203.826 129.673 202.798 130.099 201.727 130.099H198.183C198.12 132.083 197.306 133.973 195.897 135.382C194.43 136.849 192.439 137.674 190.363 137.674H183.032C182.969 139.659 182.154 141.549 180.746 142.958C179.337 144.367 177.447 145.18 175.462 145.243V152.326H182.538V148.788C182.538 147.717 182.963 146.69 183.72 145.933C184.478 145.175 185.505 144.75 186.576 144.75C187.647 144.75 188.673 145.176 189.43 145.933C190.188 146.69 190.613 147.717 190.613 148.788V159.901H194.151C195.222 159.901 196.249 160.327 197.007 161.084C197.764 161.841 198.189 162.869 198.189 163.939C198.189 165.01 197.764 166.038 197.007 166.795C196.249 167.552 195.222 167.978 194.151 167.978H190.613V175.059C192.598 175.122 194.489 175.936 195.897 177.345C197.307 178.755 198.12 180.648 198.182 182.635C200.169 182.696 202.062 183.511 203.472 184.921C204.94 186.388 205.765 188.379 205.765 190.454V197.786C207.75 197.85 209.64 198.664 211.049 200.072C212.516 201.54 213.341 203.531 213.341 205.606V209.394C213.341 210.464 212.915 211.492 212.158 212.249C211.401 213.006 210.373 213.432 209.302 213.432C208.232 213.432 207.205 213.006 206.448 212.249C205.691 211.492 205.265 210.464 205.265 209.394V205.85C203.281 205.786 201.39 204.972 199.981 203.563C198.571 202.153 197.757 200.26 197.695 198.273C195.708 198.211 193.816 197.398 192.406 195.988C190.997 194.58 190.182 192.689 190.119 190.704H183.038V197.786C185.022 197.85 186.913 198.664 188.321 200.072C189.73 201.481 190.544 203.372 190.607 205.356H194.151C195.222 205.356 196.249 205.782 197.007 206.539C197.764 207.296 198.189 208.323 198.189 209.394C198.189 210.464 197.764 211.492 197.007 212.249C196.249 213.006 195.222 213.432 194.151 213.432H190.613V216.97C190.613 218.041 190.188 219.068 189.43 219.825C188.673 220.582 187.647 221.008 186.576 221.008C185.505 221.008 184.478 220.582 183.72 219.825C182.963 219.068 182.538 218.041 182.538 216.97V205.856H175.462V213.182C175.462 215.257 174.637 217.248 173.17 218.716C171.702 220.183 169.712 221.008 167.636 221.008H148.697C147.626 221.008 146.599 220.582 145.842 219.825C145.084 219.068 144.659 218.041 144.659 216.97C144.659 215.899 145.084 214.871 145.842 214.114C146.599 213.357 147.626 212.932 148.697 212.932H167.386V205.856H137.583V213.182C137.583 215.257 136.758 217.248 135.291 218.716C133.823 220.183 131.833 221.008 129.758 221.008C127.682 221.008 125.691 220.183 124.223 218.716C122.756 217.248 121.931 215.257 121.931 213.182C121.932 211.106 122.756 209.116 124.223 207.648C125.632 206.24 127.523 205.425 129.508 205.361V179.091C129.508 178.02 129.933 176.993 130.69 176.235C131.447 175.478 132.475 175.053 133.546 175.053C134.616 175.053 135.643 175.479 136.4 176.235C137.157 176.993 137.583 178.02 137.583 179.091V190.204H152.235V183.122C150.25 183.059 148.36 182.245 146.951 180.837C145.483 179.369 144.659 177.378 144.659 175.303V167.728C144.659 165.652 145.483 163.661 146.951 162.193C148.361 160.784 150.253 159.969 152.24 159.907C152.302 157.92 153.117 156.028 154.527 154.618C155.995 153.151 157.985 152.326 160.06 152.326H167.386V145C167.387 142.925 168.211 140.934 169.678 139.467C171.088 138.057 172.981 137.242 174.968 137.18C175.03 135.193 175.844 133.3 177.254 131.891C178.721 130.423 180.712 129.599 182.788 129.599H190.113V122.522H186.576C185.505 122.522 184.478 122.097 183.72 121.34C182.963 120.583 182.538 119.555 182.538 118.484C182.538 117.414 182.963 116.387 183.72 115.63C184.478 114.873 185.505 114.447 186.576 114.447H190.363ZM167.886 197.78H174.962V190.704H167.886V197.78ZM160.31 182.629H182.538V160.401H160.31V182.629Z" fill="#1F1F1F"/>
<path d="M201.727 212.932C202.798 212.932 203.826 213.357 204.583 214.114C205.34 214.871 205.765 215.899 205.765 216.97C205.765 218.041 205.34 219.068 204.583 219.825C203.826 220.582 202.798 221.008 201.727 221.008C200.656 221.008 199.629 220.582 198.872 219.825C198.115 219.068 197.689 218.041 197.689 216.97C197.689 215.899 198.115 214.871 198.872 214.114C199.629 213.357 200.656 212.932 201.727 212.932Z" fill="#1F1F1F"/>
<path d="M110.818 205.356C111.889 205.356 112.916 205.782 113.674 206.539C114.43 207.296 114.856 208.323 114.856 209.394C114.856 210.464 114.431 211.492 113.674 212.249C112.916 213.006 111.889 213.432 110.818 213.432C109.747 213.432 108.72 213.006 107.963 212.249C107.206 211.492 106.78 210.464 106.78 209.394C106.78 208.323 107.206 207.296 107.963 206.539C108.72 205.782 109.747 205.356 110.818 205.356Z" fill="#1F1F1F"/>
<path d="M95.6667 167.478C96.7374 167.478 97.7641 167.903 98.5212 168.66C99.2783 169.417 99.7037 170.444 99.7039 171.515V182.879C99.7038 184.954 98.8794 186.945 97.4119 188.412C96.0033 189.821 94.1134 190.635 92.1287 190.698V194.242C92.1287 195.313 91.7032 196.34 90.946 197.098C90.1888 197.855 89.1615 198.28 88.0906 198.28C87.0198 198.28 85.9923 197.855 85.2351 197.098C84.4781 196.34 84.0525 195.313 84.0525 194.242V190.454C84.0527 188.379 84.8772 186.388 86.3445 184.921C87.753 183.512 89.6439 182.698 91.6287 182.635V171.515C91.6288 170.444 92.0543 169.417 92.8113 168.66C93.5685 167.903 94.5959 167.478 95.6667 167.478Z" fill="#1F1F1F"/>
<path d="M125.969 167.478C127.04 167.478 128.068 167.903 128.825 168.66C129.582 169.417 130.007 170.444 130.008 171.515C130.008 172.585 129.582 173.613 128.825 174.37C128.068 175.127 127.04 175.553 125.969 175.553H122.431V194.242C122.431 195.313 122.006 196.34 121.249 197.098C120.492 197.855 119.464 198.28 118.393 198.28C117.323 198.28 116.296 197.855 115.539 197.098C114.782 196.34 114.356 195.313 114.356 194.242V175.553H110.818C109.747 175.553 108.72 175.127 107.963 174.37C107.206 173.613 106.78 172.585 106.78 171.515C106.78 170.444 107.206 169.417 107.963 168.66C108.72 167.903 109.747 167.478 110.818 167.478H125.969Z" fill="#1F1F1F"/>
<path d="M72.9392 175.053C74.01 175.053 75.0375 175.478 75.7947 176.235C76.5519 176.993 76.9772 178.02 76.9773 179.091C76.9773 180.162 76.5519 181.189 75.7947 181.946C75.0374 182.704 74.0101 183.129 72.9392 183.129C71.8683 183.129 70.841 182.704 70.0837 181.946C69.3266 181.189 68.9011 180.162 68.9011 179.091C68.9012 178.02 69.3266 176.993 70.0837 176.235C70.841 175.478 71.8684 175.053 72.9392 175.053Z" fill="#1F1F1F"/>
<path d="M216.879 175.053C217.949 175.053 218.977 175.478 219.734 176.235C220.491 176.993 220.917 178.02 220.917 179.091C220.917 180.162 220.491 181.189 219.734 181.946C218.977 182.704 217.95 183.129 216.879 183.129C215.808 183.129 214.78 182.704 214.023 181.946C213.266 181.189 212.841 180.162 212.841 179.091C212.841 178.02 213.266 176.993 214.023 176.235C214.78 175.478 215.808 175.053 216.879 175.053Z" fill="#1F1F1F"/>
<path d="M72.9392 129.599C74.01 129.599 75.0375 130.024 75.7947 130.781C76.5517 131.538 76.9772 132.566 76.9773 133.637C76.9772 134.707 76.5516 135.734 75.7947 136.491C75.0374 137.248 74.0101 137.674 72.9392 137.674H69.4011V152.326H91.6287V148.788C91.6287 147.717 92.0541 146.69 92.8113 145.933C93.5685 145.175 94.5959 144.75 95.6667 144.75C96.7374 144.75 97.7641 145.176 98.5212 145.933C99.2784 146.69 99.7038 147.717 99.7039 148.788V152.576C99.7037 154.651 98.8793 156.642 97.4119 158.109C96.0017 159.519 94.109 160.333 92.1218 160.395C92.0601 162.382 91.2468 164.275 89.8367 165.686C88.3691 167.153 86.378 167.978 84.3025 167.978C82.2273 167.977 80.2368 167.153 78.7693 165.686C77.3608 164.277 76.5465 162.386 76.4832 160.401H69.4011V163.939C69.4011 165.01 68.9757 166.038 68.2185 166.795C67.4613 167.552 66.4338 167.978 65.363 167.978C64.2925 167.977 63.2656 167.552 62.5085 166.795C61.7514 166.038 61.326 165.01 61.3259 163.939V160.401H50.2117C49.141 160.401 48.1143 159.976 47.3572 159.219C46.6 158.462 46.1736 157.434 46.1736 156.363C46.1737 155.293 46.6001 154.266 47.3572 153.509C48.1143 152.752 49.1409 152.326 50.2117 152.326H53.7556C53.819 150.341 54.6332 148.451 56.0417 147.042C57.4504 145.633 59.3411 144.819 61.3259 144.756V137.424C61.3261 135.349 62.1504 133.358 63.6179 131.891C65.0854 130.423 67.0758 129.599 69.1511 129.599H72.9392Z" fill="#1F1F1F"/>
<path d="M205.515 152.326C207.591 152.326 209.581 153.151 211.049 154.618C212.457 156.027 213.271 157.917 213.335 159.901H216.879C217.949 159.901 218.977 160.327 219.734 161.084C220.491 161.841 220.917 162.869 220.917 163.939C220.917 165.01 220.491 166.038 219.734 166.795C218.977 167.552 217.95 167.978 216.879 167.978H213.091C211.015 167.977 209.025 167.153 207.557 165.686C206.149 164.277 205.335 162.386 205.271 160.401H201.727C200.656 160.401 199.629 159.976 198.872 159.219C198.115 158.462 197.689 157.434 197.689 156.363C197.689 155.293 198.115 154.266 198.872 153.509C199.629 152.752 200.656 152.326 201.727 152.326H205.515Z" fill="#1F1F1F"/>
<path d="M4.75757 129.599C5.82832 129.599 6.85585 130.024 7.61304 130.781C8.37004 131.538 8.79559 132.566 8.79565 133.637V156.363C8.79565 157.434 8.37009 158.462 7.61304 159.219C6.85584 159.976 5.82841 160.401 4.75757 160.401C3.6867 160.401 2.65932 159.976 1.9021 159.219C1.145 158.462 0.719482 157.434 0.719482 156.363V133.637C0.719547 132.566 1.14497 131.538 1.9021 130.781C2.65931 130.024 3.68673 129.599 4.75757 129.599Z" fill="#1F1F1F"/>
<path d="M110.818 152.326C111.889 152.326 112.916 152.752 113.674 153.509C114.43 154.266 114.856 155.293 114.856 156.363C114.856 157.434 114.431 158.462 113.674 159.219C112.916 159.976 111.889 160.401 110.818 160.401C109.747 160.401 108.72 159.976 107.963 159.219C107.206 158.462 106.78 157.434 106.78 156.363C106.78 155.293 107.206 154.266 107.963 153.509C108.72 152.752 109.747 152.326 110.818 152.326Z" fill="#1F1F1F"/>
<path d="M133.546 152.326C134.616 152.326 135.643 152.752 136.4 153.509C137.157 154.266 137.583 155.293 137.583 156.363C137.583 157.434 137.157 158.462 136.4 159.219C135.643 159.976 134.616 160.401 133.546 160.401H125.969C124.899 160.401 123.871 159.976 123.114 159.219C122.357 158.462 121.931 157.434 121.931 156.363C121.932 155.293 122.357 154.266 123.114 153.509C123.871 152.752 124.899 152.326 125.969 152.326H133.546Z" fill="#1F1F1F"/>
<path d="M38.8484 99.2949C40.9238 99.295 42.914 100.12 44.3816 101.588C45.7901 102.996 46.6043 104.886 46.6677 106.871H57.7878C58.8586 106.871 59.8861 107.297 60.6433 108.054C61.4004 108.811 61.8259 109.838 61.8259 110.909C61.8259 111.98 61.4005 113.007 60.6433 113.765C59.8861 114.522 58.8587 114.947 57.7878 114.947H46.6736V122.022H50.2117C51.2824 122.022 52.3099 122.448 53.0671 123.205C53.8243 123.962 54.2497 124.99 54.2498 126.061C54.2498 127.131 53.8243 128.159 53.0671 128.916C52.3099 129.673 51.2825 130.099 50.2117 130.099H46.6736V137.174H50.2117C51.2824 137.174 52.3099 137.599 53.0671 138.356C53.8243 139.114 54.2496 140.141 54.2498 141.212C54.2498 142.283 53.8243 143.31 53.0671 144.067C52.3099 144.825 51.2826 145.25 50.2117 145.25H39.0925C39.0291 147.235 38.2147 149.125 36.8064 150.533C35.3388 152.001 33.3477 152.826 31.2722 152.826H27.4851C26.4142 152.826 25.3869 152.4 24.6296 151.643C23.8726 150.885 23.4471 149.859 23.447 148.788C23.4471 147.717 23.8724 146.69 24.6296 145.933C25.3868 145.176 26.4143 144.75 27.4851 144.75H31.0222V137.424C31.0224 135.349 31.8469 133.358 33.3142 131.891C34.7228 130.482 36.6136 129.668 38.5984 129.604V122.522H35.0603C33.9895 122.522 32.962 122.097 32.2048 121.34C31.4479 120.583 31.0222 119.555 31.0222 118.484C31.0224 117.414 31.4479 116.387 32.2048 115.63C32.962 114.873 33.9895 114.447 35.0603 114.447H38.5984V107.371H35.0603C33.9895 107.371 32.962 106.946 32.2048 106.188C31.4478 105.431 31.0222 104.404 31.0222 103.333C31.0224 102.262 31.448 101.236 32.2048 100.479C32.962 99.7214 33.9895 99.295 35.0603 99.2949H38.8484Z" fill="#1F1F1F"/>
<path d="M141.121 144.75C142.192 144.75 143.219 145.175 143.976 145.933C144.733 146.69 145.159 147.717 145.159 148.788C145.159 149.859 144.733 150.885 143.976 151.643C143.219 152.4 142.192 152.826 141.121 152.826C140.05 152.826 139.023 152.4 138.265 151.643C137.509 150.885 137.083 149.859 137.083 148.788C137.083 147.717 137.508 146.69 138.265 145.933C139.023 145.175 140.05 144.75 141.121 144.75Z" fill="#1F1F1F"/>
<path d="M216.879 144.75C217.949 144.75 218.977 145.175 219.734 145.933C220.491 146.69 220.917 147.717 220.917 148.788C220.917 149.859 220.491 150.885 219.734 151.643C218.977 152.4 217.95 152.826 216.879 152.826C215.808 152.826 214.78 152.4 214.023 151.643C213.266 150.885 212.841 149.859 212.841 148.788C212.841 147.717 213.266 146.69 214.023 145.933C214.78 145.175 215.808 144.75 216.879 144.75Z" fill="#1F1F1F"/>
<path d="M19.9089 137.174C20.9797 137.174 22.0072 137.599 22.7644 138.356C23.5216 139.114 23.9469 140.141 23.947 141.212C23.947 142.283 23.5215 143.31 22.7644 144.067C22.0072 144.825 20.9798 145.25 19.9089 145.25C18.8381 145.25 17.8107 144.825 17.0535 144.067C16.2964 143.31 15.8708 142.283 15.8708 141.212C15.871 140.141 16.2963 139.114 17.0535 138.356C17.8107 137.599 18.8381 137.174 19.9089 137.174Z" fill="#1F1F1F"/>
<path d="M156.272 137.174C157.343 137.174 158.37 137.599 159.128 138.356C159.885 139.114 160.31 140.141 160.31 141.212C160.31 142.283 159.885 143.31 159.128 144.067C158.37 144.825 157.343 145.25 156.272 145.25C155.202 145.25 154.175 144.824 153.418 144.067C152.661 143.31 152.235 142.283 152.235 141.212C152.235 140.141 152.661 139.114 153.418 138.356C154.175 137.6 155.202 137.174 156.272 137.174Z" fill="#1F1F1F"/>
<path d="M156.272 114.447C157.343 114.447 158.37 114.873 159.128 115.63C159.885 116.387 160.31 117.414 160.31 118.484V122.028C162.295 122.092 164.186 122.906 165.594 124.314C167.062 125.782 167.886 127.773 167.886 129.849V133.637C167.886 134.707 167.461 135.734 166.704 136.491C165.947 137.248 164.919 137.674 163.848 137.674C162.778 137.674 161.75 137.248 160.993 136.491C160.236 135.734 159.81 134.707 159.81 133.637V130.092C157.826 130.028 155.936 129.215 154.527 127.807C153.06 126.339 152.235 124.348 152.235 122.272V118.484C152.235 117.414 152.661 116.387 153.418 115.63C154.175 114.873 155.202 114.447 156.272 114.447Z" fill="#1F1F1F"/>
<path d="M216.879 122.022C217.949 122.022 218.977 122.448 219.734 123.205C220.491 123.962 220.917 124.99 220.917 126.061V129.849C220.917 131.924 220.092 133.914 218.625 135.382C217.157 136.849 215.166 137.674 213.091 137.674H209.302C208.232 137.674 207.205 137.248 206.448 136.491C205.691 135.734 205.265 134.707 205.265 133.637C205.265 132.566 205.691 131.538 206.448 130.781C207.205 130.024 208.232 129.599 209.302 129.599H212.841V126.061C212.841 124.99 213.266 123.962 214.023 123.205C214.78 122.448 215.808 122.022 216.879 122.022Z" fill="#1F1F1F"/>
<path d="M118.313 86C128.248 86 136.302 93.938 136.302 103.729C136.302 113.521 128.248 121.458 118.313 121.458H111.06C105.131 121.458 100.325 116.721 100.325 110.878C100.325 105.035 105.132 100.298 111.06 100.298H118.313C120.236 100.298 121.795 101.834 121.795 103.729C121.794 105.624 120.236 107.161 118.313 107.161H111.06C108.977 107.161 107.289 108.825 107.289 110.878C107.289 112.931 108.977 114.595 111.06 114.595H118.313C124.402 114.595 129.338 109.731 129.339 103.729C129.339 97.7282 124.402 92.8633 118.313 92.8633H110.676C100.793 92.8636 92.7814 100.759 92.781 110.499C92.781 120.483 101.183 128.478 111.307 128.126L118.97 127.858C123.254 127.709 127.464 126.712 131.348 124.926C133.091 124.125 135.162 124.867 135.975 126.584C136.788 128.301 136.035 130.343 134.293 131.145C129.561 133.321 124.433 134.535 119.216 134.717L111.553 134.984C97.4897 135.474 85.8181 124.369 85.8181 110.499C85.8185 96.9687 96.9473 86.0003 110.676 86H118.313Z" fill="#1F1F1F"/>
<path d="M27.4851 122.022C28.5556 122.023 29.5825 122.448 30.3396 123.205C31.0968 123.962 31.5221 124.99 31.5222 126.061C31.5222 127.131 31.0968 128.159 30.3396 128.916C29.5825 129.673 28.5557 130.099 27.4851 130.099H19.9089C18.8381 130.099 17.8107 129.673 17.0535 128.916C16.2963 128.159 15.8708 127.131 15.8708 126.061C15.8709 124.99 16.2963 123.962 17.0535 123.205C17.8107 122.448 18.8381 122.022 19.9089 122.022H27.4851Z" fill="#1F1F1F"/>
<path d="M12.3328 114.447C13.4036 114.447 14.431 114.873 15.1882 115.63C15.9453 116.387 16.3707 117.414 16.3708 118.484C16.3708 119.555 15.9454 120.583 15.1882 121.34C14.431 122.097 13.4037 122.522 12.3328 122.522C11.2621 122.522 10.2354 122.097 9.47827 121.34C8.72114 120.583 8.29565 119.555 8.29565 118.484C8.29583 117.414 8.72118 116.387 9.47827 115.63C10.2354 114.873 11.2621 114.447 12.3328 114.447Z" fill="#1F1F1F"/>
<path d="M65.363 91.7197C66.4338 91.7197 67.4613 92.1452 68.2185 92.9023C68.9757 93.6595 69.4011 94.687 69.4011 95.7578V99.3008C71.3859 99.3641 73.2767 100.179 74.6853 101.588C76.1526 103.055 76.9772 105.046 76.9773 107.121V114.697C76.9772 116.773 76.1527 118.763 74.6853 120.23C73.2177 121.698 71.2266 122.522 69.1511 122.522H65.363C64.2923 122.522 63.2657 122.097 62.5085 121.34C61.7514 120.583 61.3259 119.555 61.3259 118.484C61.3261 117.414 61.7515 116.387 62.5085 115.63C63.2657 114.873 64.2923 114.447 65.363 114.447H68.9011V107.364C66.9165 107.301 65.0264 106.487 63.6179 105.079C62.1504 103.612 61.3259 101.62 61.3259 99.5449V95.7578C61.326 94.687 61.7514 93.6595 62.5085 92.9023C63.2657 92.1453 64.2924 91.7199 65.363 91.7197Z" fill="#1F1F1F"/>
<path d="M209.302 114.447C210.373 114.447 211.401 114.873 212.158 115.63C212.915 116.387 213.34 117.414 213.341 118.484C213.341 119.555 212.915 120.583 212.158 121.34C211.401 122.097 210.373 122.522 209.302 122.522C208.232 122.522 207.205 122.097 206.448 121.34C205.691 120.583 205.265 119.555 205.265 118.484C205.266 117.414 205.691 116.387 206.448 115.63C207.205 114.873 208.232 114.447 209.302 114.447Z" fill="#1F1F1F"/>
<path d="M27.4851 106.871C28.5557 106.871 29.5825 107.297 30.3396 108.054C31.0968 108.811 31.5222 109.838 31.5222 110.909C31.5222 111.98 31.0968 113.007 30.3396 113.765C29.5825 114.522 28.5557 114.947 27.4851 114.947C26.4144 114.947 25.3868 114.522 24.6296 113.765C23.8725 113.007 23.4471 111.98 23.447 110.909C23.4471 109.838 23.8724 108.811 24.6296 108.054C25.3868 107.297 26.4143 106.871 27.4851 106.871Z" fill="#1F1F1F"/>
<path fill-rule="evenodd" clip-rule="evenodd" d="M175.212 61.417C177.287 61.417 179.278 62.2415 180.746 63.709C182.154 65.1174 182.968 67.0077 183.032 68.9922H190.363C192.438 68.9922 194.43 69.8167 195.897 71.2842C197.365 72.7517 198.189 74.7429 198.189 76.8184V88.1816C198.189 89.2525 197.764 90.2799 197.007 91.0371C196.249 91.7943 195.222 92.2197 194.151 92.2197C193.08 92.2196 192.053 91.7943 191.296 91.0371C190.539 90.2799 190.113 89.2524 190.113 88.1816V77.0684H183.038V95.7578C183.038 96.8284 182.612 97.8552 181.855 98.6123C181.098 99.3696 180.071 99.7949 179 99.7949C177.929 99.7949 176.901 99.3695 176.144 98.6123C175.387 97.8552 174.962 96.8284 174.962 95.7578V92.2197H167.886V99.3008C169.871 99.3642 171.761 100.18 173.17 101.588C174.578 102.996 175.392 104.886 175.456 106.871H179C180.071 106.871 181.098 107.297 181.855 108.054C182.612 108.811 183.038 109.838 183.038 110.909C183.038 111.98 182.612 113.007 181.855 113.765C181.098 114.522 180.071 114.947 179 114.947H175.212C173.136 114.947 171.146 114.123 169.678 112.655C168.27 111.247 167.456 109.356 167.392 107.371H152.485C150.41 107.371 148.419 106.547 146.951 105.079C145.483 103.612 144.659 101.62 144.659 99.5449V80.6064C144.659 79.5357 145.084 78.5082 145.842 77.751C146.599 76.9938 147.626 76.5684 148.697 76.5684C149.768 76.5684 150.794 76.994 151.552 77.751C152.309 78.5082 152.735 79.5356 152.735 80.6064V84.1436H159.81V77.0684H156.272C155.202 77.0682 154.175 76.6427 153.418 75.8857C152.661 75.1285 152.235 74.1011 152.235 73.0303C152.235 71.9595 152.661 70.932 153.418 70.1748C154.175 69.4179 155.202 68.9923 156.272 68.9922H159.816C159.88 67.0077 160.694 65.1174 162.102 63.709C163.57 62.2414 165.561 61.417 167.636 61.417H175.212ZM152.735 99.2949H159.81V92.2197H152.735V99.2949Z" fill="#1F1F1F"/>
<path d="M8.54565 76.5684C10.6209 76.5685 12.6114 77.3929 14.0789 78.8604C15.4886 80.2702 16.3019 82.1627 16.364 84.1494C18.3512 84.2111 20.2448 85.0255 21.655 86.4355C23.1226 87.9031 23.947 89.8943 23.947 91.9697V99.5449C23.947 101.62 23.1225 103.612 21.655 105.079C20.1874 106.547 18.1964 107.371 16.1208 107.371H4.75757C3.6867 107.371 2.65932 106.946 1.9021 106.188C1.14499 105.431 0.719482 104.404 0.719482 103.333C0.719621 102.262 1.14513 101.236 1.9021 100.479C2.65931 99.7213 3.68673 99.295 4.75757 99.2949H15.8708V92.2129C13.8863 92.1494 11.9961 91.3361 10.5876 89.9277C9.17911 88.5191 8.36482 86.6284 8.30151 84.6436H4.75757C3.6867 84.6435 2.65932 84.2182 1.9021 83.4609C1.14517 82.7038 0.719597 81.677 0.719482 80.6064C0.719547 79.5357 1.14498 78.5082 1.9021 77.751C2.65931 76.9938 3.68673 76.5684 4.75757 76.5684H8.54565Z" fill="#1F1F1F"/>
<path d="M194.151 99.2949C195.222 99.2949 196.249 99.7214 197.007 100.479C197.764 101.236 198.189 102.262 198.189 103.333C198.189 104.404 197.764 105.431 197.007 106.188C196.249 106.946 195.222 107.371 194.151 107.371H186.576C185.505 107.371 184.478 106.946 183.72 106.188C182.963 105.431 182.538 104.404 182.538 103.333C182.538 102.262 182.963 101.236 183.72 100.479C184.478 99.7213 185.505 99.295 186.576 99.2949H194.151Z" fill="#1F1F1F"/>
<path d="M209.302 84.1436C210.373 84.1436 211.401 84.5692 212.158 85.3262C212.915 86.0833 213.34 87.1109 213.341 88.1816V91.7256C215.325 91.7889 217.216 92.6032 218.625 94.0117C220.092 95.4791 220.917 97.4697 220.917 99.5449C220.917 101.62 220.092 103.612 218.625 105.079C217.157 106.547 215.166 107.371 213.091 107.371C211.015 107.371 209.025 106.547 207.557 105.079C206.149 103.67 205.335 101.78 205.271 99.7949H201.727C200.656 99.7949 199.629 99.3695 198.872 98.6123C198.115 97.8552 197.689 96.8284 197.689 95.7578C197.689 94.687 198.115 93.6595 198.872 92.9023C199.629 92.1452 200.656 91.7198 201.727 91.7197H205.265V88.1816C205.265 87.1109 205.691 86.0833 206.448 85.3262C207.205 84.5693 208.232 84.1437 209.302 84.1436Z" fill="#1F1F1F"/>
<path d="M50.2117 91.7197C51.2825 91.7197 52.3099 92.1452 53.0671 92.9023C53.8243 93.6595 54.2497 94.687 54.2498 95.7578C54.2497 96.8285 53.8241 97.8552 53.0671 98.6123C52.3099 99.3696 51.2826 99.7949 50.2117 99.7949C49.1409 99.7948 48.1143 99.3695 47.3572 98.6123C46.6001 97.8551 46.1737 96.8285 46.1736 95.7578C46.1736 94.687 46.6 93.6595 47.3572 92.9023C48.1143 92.1454 49.141 91.7198 50.2117 91.7197Z" fill="#1F1F1F"/>
<path d="M57.7878 84.1436C58.8586 84.1436 59.8861 84.5691 60.6433 85.3262C61.4005 86.0833 61.8258 87.1109 61.8259 88.1816C61.8259 89.2525 61.4004 90.2799 60.6433 91.0371C59.8861 91.7943 58.8587 92.2197 57.7878 92.2197C56.717 92.2197 55.6896 91.7943 54.9324 91.0371C54.1752 90.2799 53.7498 89.2525 53.7498 88.1816C53.7499 87.1109 54.1752 86.0833 54.9324 85.3262C55.6896 84.5691 56.7171 84.1436 57.7878 84.1436Z" fill="#1F1F1F"/>
<path d="M31.2722 61.417C33.3477 61.417 35.3388 62.2415 36.8064 63.709C38.2738 65.1765 39.0983 67.1669 39.0984 69.2422V76.8184C39.0983 78.8937 38.2738 80.884 36.8064 82.3516C35.3388 83.8192 33.3477 84.6436 31.2722 84.6436H27.4851C26.4142 84.6435 25.3869 84.2182 24.6296 83.4609C23.8726 82.7038 23.4471 81.6771 23.447 80.6064C23.4471 79.5356 23.8724 78.5082 24.6296 77.751C25.3869 76.9938 26.4143 76.5684 27.4851 76.5684H31.0222V69.4922H19.9089C18.8381 69.4922 17.8107 69.0668 17.0535 68.3096C16.2964 67.5524 15.8708 66.5248 15.8708 65.4541C15.871 64.3835 16.2965 63.3567 17.0535 62.5996C17.8107 61.8424 18.8381 61.417 19.9089 61.417H31.2722Z" fill="#1F1F1F"/>
<path d="M50.2117 76.5684C51.2825 76.5684 52.3099 76.9938 53.0671 77.751C53.8243 78.5082 54.2497 79.5357 54.2498 80.6064C54.2496 81.6771 53.8242 82.7038 53.0671 83.4609C52.3099 84.2182 51.2826 84.6436 50.2117 84.6436C49.1409 84.6435 48.1143 84.218 47.3572 83.4609C46.6001 82.7038 46.1737 81.6771 46.1736 80.6064C46.1736 79.5356 46.6 78.5082 47.3572 77.751C48.1143 76.9939 49.141 76.5685 50.2117 76.5684Z" fill="#1F1F1F"/>
<path fill-rule="evenodd" clip-rule="evenodd" d="M84.3025 0.810547C86.3779 0.810547 88.3691 1.63504 89.8367 3.10254C91.2453 4.51115 92.0595 6.4019 92.1228 8.38672H99.4539C101.529 8.38672 103.52 9.21121 104.988 10.6787C106.398 12.0885 107.211 13.9811 107.273 15.9678C109.26 16.0295 111.154 16.8438 112.564 18.2539C113.973 19.6625 114.787 21.5533 114.85 23.5381H118.393C119.464 23.5381 120.492 23.9636 121.249 24.7207C122.006 25.4779 122.431 26.5054 122.431 27.5762C122.431 28.6469 122.006 29.6735 121.249 30.4307C120.492 31.1879 119.464 31.6133 118.393 31.6133H114.856V50.3027C114.856 51.3735 114.431 52.401 113.674 53.1582C112.916 53.9154 111.889 54.3408 110.818 54.3408C109.747 54.3408 108.72 53.9154 107.963 53.1582C107.206 52.401 106.78 51.3735 106.78 50.3027V46.7646H99.7039V50.3027C99.7039 51.3736 99.2785 52.401 98.5212 53.1582C97.7641 53.9152 96.7375 54.3407 95.6667 54.3408C94.5959 54.3408 93.5685 53.9154 92.8113 53.1582C92.0541 52.401 91.6287 51.3736 91.6287 50.3027V46.7646H84.5525V53.8467C86.5373 53.91 88.428 54.7243 89.8367 56.1328C91.3042 57.6004 92.1286 59.5916 92.1287 61.667C92.1286 63.7423 91.3041 65.7327 89.8367 67.2002C88.3691 68.6678 86.378 69.4922 84.3025 69.4922C82.2271 69.4921 80.2368 68.6677 78.7693 67.2002C77.3019 65.7327 76.4774 63.7423 76.4773 61.667V46.7646H69.4011V68.9922H72.9392C74.01 68.9922 75.0375 69.4177 75.7947 70.1748C76.5519 70.932 76.9772 71.9595 76.9773 73.0303C76.9773 74.1011 76.5519 75.1285 75.7947 75.8857C75.0374 76.643 74.0101 77.0684 72.9392 77.0684H69.4011V80.6064C69.401 81.6771 68.9756 82.7038 68.2185 83.4609C67.4613 84.2182 66.4339 84.6436 65.363 84.6436C64.2923 84.6434 63.2657 84.2181 62.5085 83.4609C61.7515 82.7038 61.326 81.6771 61.3259 80.6064V46.5146C61.3261 44.4394 62.1505 42.4489 63.6179 40.9814C65.0264 39.5731 66.9165 38.7588 68.9011 38.6953V24.0312C66.9166 23.9678 65.0264 23.1544 63.6179 21.7461C62.1504 20.2785 61.3259 18.2873 61.3259 16.2119V8.63672C61.326 6.56129 62.1504 4.5701 63.6179 3.10254C65.0854 1.63515 67.0758 0.810628 69.1511 0.810547H84.3025ZM76.9773 38.6895H84.0525V31.6133H76.9773V38.6895ZM84.5525 23.5439C86.5373 23.6073 88.428 24.4215 89.8367 25.8301C91.304 27.2975 92.1285 29.288 92.1287 31.3633V38.6895H106.78V31.6064C104.795 31.543 102.905 30.7297 101.497 29.3213C100.029 27.8538 99.2039 25.8634 99.2039 23.7881V16.4619H84.5525V23.5439ZM69.4011 15.9619H76.4773V8.88672H69.4011V15.9619Z" fill="#1F1F1F"/>
<path d="M95.6667 68.9922C96.7373 68.9923 97.7641 69.4179 98.5212 70.1748C99.2784 70.932 99.7038 71.9594 99.7039 73.0303C99.7039 74.1011 99.2784 75.1285 98.5212 75.8857C97.7641 76.6427 96.7374 77.0683 95.6667 77.0684C94.596 77.0683 93.5685 76.6429 92.8113 75.8857C92.0542 75.1285 91.6287 74.1011 91.6287 73.0303C91.6287 71.9594 92.0541 70.932 92.8113 70.1748C93.5685 69.4177 94.596 68.9922 95.6667 68.9922Z" fill="#1F1F1F"/>
<path d="M133.546 23.5381C134.616 23.5382 135.643 23.9637 136.4 24.7207C137.157 25.4779 137.583 26.5053 137.583 27.5762V31.1133H152.485C154.56 31.1134 156.551 31.938 158.018 33.4053C159.486 34.8728 160.31 36.864 160.31 38.9395V50.3027C160.31 51.3736 159.885 52.401 159.128 53.1582C158.37 53.9154 157.343 54.3408 156.272 54.3408C155.202 54.3407 154.175 53.9152 153.418 53.1582C152.661 52.401 152.235 51.3736 152.235 50.3027V39.1895H137.577C137.513 41.1741 136.699 43.0641 135.291 44.4727C133.882 45.8812 131.992 46.6953 130.008 46.7588V53.8408H137.083V50.3027C137.083 49.2322 137.509 48.2053 138.265 47.4482C139.023 46.6911 140.05 46.2647 141.121 46.2646C142.192 46.2646 143.219 46.6911 143.976 47.4482C144.733 48.2054 145.159 49.2321 145.159 50.3027V54.0908C145.159 56.1662 144.334 58.1564 142.867 59.624C141.399 61.0916 139.408 61.917 137.333 61.917H130.002C129.938 63.9015 129.124 65.7917 127.716 67.2002C126.307 68.6088 124.416 69.422 122.431 69.4854V73.0303C122.431 74.1011 122.006 75.1285 121.249 75.8857C120.492 76.6429 119.464 77.0684 118.393 77.0684C117.323 77.0682 116.296 76.6427 115.539 75.8857C114.782 75.1285 114.356 74.1011 114.356 73.0303V61.667C114.356 59.5916 115.181 57.6004 116.648 56.1328C118.057 54.7245 119.947 53.9101 121.931 53.8467V46.5146C121.932 44.4395 122.756 42.4489 124.223 40.9814C125.632 39.5729 127.523 38.7587 129.508 38.6953V27.5762C129.508 26.5054 129.933 25.4779 130.69 24.7207C131.447 23.9635 132.475 23.5381 133.546 23.5381Z" fill="#1F1F1F"/>
<path d="M141.121 68.9922C142.192 68.9922 143.219 69.4177 143.976 70.1748C144.734 70.932 145.159 71.9595 145.159 73.0303C145.159 74.1011 144.734 75.1285 143.976 75.8857C143.219 76.6429 142.192 77.0684 141.121 77.0684H133.546C132.475 77.0683 131.447 76.6428 130.69 75.8857C129.933 75.1285 129.508 74.1011 129.508 73.0303C129.508 71.9594 129.933 70.932 130.69 70.1748C131.447 69.4177 132.475 68.9922 133.546 68.9922H141.121Z" fill="#1F1F1F"/>
<path d="M213.091 61.417C215.166 61.417 217.157 62.2415 218.625 63.709C220.092 65.1765 220.917 67.167 220.917 69.2422V73.0303C220.917 74.1011 220.491 75.1285 219.734 75.8857C218.977 76.643 217.95 77.0683 216.879 77.0684C215.808 77.0683 214.78 76.6429 214.023 75.8857C213.266 75.1285 212.841 74.1011 212.841 73.0303V69.4922H201.727C200.656 69.4922 199.629 69.0668 198.872 68.3096C198.115 67.5523 197.689 66.5249 197.689 65.4541C197.689 64.3835 198.115 63.3567 198.872 62.5996C199.629 61.8424 200.656 61.417 201.727 61.417H213.091Z" fill="#1F1F1F"/>
<path d="M50.2117 61.417C51.2825 61.417 52.3099 61.8425 53.0671 62.5996C53.8241 63.3567 54.2496 64.3835 54.2498 65.4541C54.2498 66.5249 53.8243 67.5523 53.0671 68.3096C52.3099 69.0668 51.2826 69.4922 50.2117 69.4922C49.141 69.4921 48.1143 69.0666 47.3572 68.3096C46.6 67.5523 46.1736 66.5249 46.1736 65.4541C46.1738 64.3834 46.6001 63.3567 47.3572 62.5996C48.1143 61.8425 49.141 61.4171 50.2117 61.417Z" fill="#1F1F1F"/>
<path d="M103.242 53.8408C104.313 53.8408 105.34 54.2663 106.097 55.0234C106.855 55.7806 107.28 56.8081 107.28 57.8789C107.28 58.9497 106.855 59.9772 106.097 60.7344C105.34 61.4915 104.313 61.917 103.242 61.917C102.171 61.9169 101.145 61.4913 100.387 60.7344C99.6304 59.9772 99.2039 58.9497 99.2039 57.8789C99.2039 56.8081 99.6303 55.7806 100.387 55.0234C101.145 54.2665 102.171 53.8409 103.242 53.8408Z" fill="#1F1F1F"/>
<path d="M31.2722 15.9619C33.3476 15.9619 35.3388 16.7864 36.8064 18.2539C38.274 19.7215 39.0983 21.7127 39.0984 23.7881V31.3633C39.0984 33.4388 38.274 35.4299 36.8064 36.8975C35.3388 38.3651 33.3477 39.1895 31.2722 39.1895H23.697C21.6215 39.1894 19.6304 38.365 18.1628 36.8975C16.6954 35.4299 15.8708 33.4387 15.8708 31.3633V23.7881C15.8709 21.7127 16.6953 19.7215 18.1628 18.2539C19.6304 16.7864 21.6216 15.9619 23.697 15.9619H31.2722Z" fill="#1F1F1F"/>
<path fill-rule="evenodd" clip-rule="evenodd" d="M46.4236 0.810547C48.499 0.810547 50.4902 1.63505 51.9578 3.10254C53.4253 4.5701 54.2497 6.56129 54.2498 8.63672V46.5146C54.2498 48.5901 53.4253 50.5812 51.9578 52.0488C50.4901 53.5164 48.4991 54.3408 46.4236 54.3408H8.54565C6.47018 54.3408 4.47906 53.5164 3.01147 52.0488C1.54399 50.5812 0.719482 48.5901 0.719482 46.5146V8.63672C0.719547 6.56129 1.54392 4.5701 3.01147 3.10254C4.47905 1.63499 6.47021 0.810579 8.54565 0.810547H46.4236ZM8.79565 46.2646H46.1736V8.88672H8.79565V46.2646Z" fill="#1F1F1F"/>
<path d="M197.939 15.9619C200.014 15.9619 202.005 16.7866 203.472 18.2539C204.94 19.7215 205.765 21.7127 205.765 23.7881V31.3633C205.765 33.4388 204.94 35.4299 203.472 36.8975C202.005 38.3649 200.015 39.1895 197.939 39.1895H190.363C188.288 39.1893 186.297 38.3649 184.83 36.8975C183.362 35.4299 182.538 33.4387 182.538 31.3633V23.7881C182.538 21.7127 183.362 19.7215 184.83 18.2539C186.297 16.7865 188.288 15.9621 190.363 15.9619H197.939Z" fill="#1F1F1F"/>
<path fill-rule="evenodd" clip-rule="evenodd" d="M213.091 0.810547C215.166 0.810547 217.157 1.63504 218.625 3.10254C220.092 4.57008 220.917 6.56135 220.917 8.63672V46.5146C220.917 48.5901 220.092 50.5812 218.625 52.0488C217.157 53.5164 215.166 54.3408 213.091 54.3408H175.212C173.136 54.3407 171.146 53.5163 169.678 52.0488C168.211 50.5812 167.386 48.5901 167.386 46.5146V8.63672C167.387 6.56129 168.211 4.5701 169.678 3.10254C171.146 1.63514 173.136 0.810645 175.212 0.810547H213.091ZM175.462 46.2646H212.841V8.88672H175.462V46.2646Z" fill="#1F1F1F"/>
<path d="M125.969 15.9619C127.04 15.9619 128.068 16.3874 128.825 17.1445C129.582 17.9017 130.008 18.9292 130.008 20C130.008 21.0709 129.582 22.0982 128.825 22.8555C128.068 23.6127 127.04 24.0381 125.969 24.0381C124.899 24.038 123.871 23.6127 123.114 22.8555C122.357 22.0983 121.931 21.0708 121.931 20C121.931 18.9292 122.357 17.9017 123.114 17.1445C123.871 16.3874 124.899 15.962 125.969 15.9619Z" fill="#1F1F1F"/>
<path d="M141.121 15.9619C142.192 15.9619 143.219 16.3874 143.976 17.1445C144.734 17.9017 145.159 18.9292 145.159 20C145.159 21.0709 144.734 22.0982 143.976 22.8555C143.219 23.6126 142.192 24.0381 141.121 24.0381C140.05 24.038 139.023 23.6126 138.265 22.8555C137.508 22.0983 137.083 21.0708 137.083 20C137.083 18.9292 137.508 17.9017 138.265 17.1445C139.023 16.3874 140.05 15.962 141.121 15.9619Z" fill="#1F1F1F"/>
<path d="M129.758 0.810547C131.833 0.810599 133.823 1.6352 135.291 3.10254C136.758 4.5701 137.583 6.56129 137.583 8.63672V12.4238C137.583 13.4947 137.157 14.5221 136.4 15.2793C135.643 16.0364 134.616 16.4618 133.546 16.4619C132.475 16.4619 131.447 16.0365 130.69 15.2793C129.933 14.5221 129.508 13.4947 129.508 12.4238V8.88672H125.969C124.899 8.88668 123.871 8.46126 123.114 7.7041C122.357 6.94692 121.931 5.91938 121.931 4.84863C121.931 3.77786 122.357 2.75035 123.114 1.99316C123.871 1.23599 124.899 0.810583 125.969 0.810547H129.758Z" fill="#1F1F1F"/>
<path d="M156.272 8.38672C157.343 8.38672 158.37 8.8122 159.128 9.56934C159.885 10.3264 160.31 11.3532 160.31 12.4238C160.31 13.4947 159.885 14.5221 159.128 15.2793C158.37 16.0365 157.343 16.4619 156.272 16.4619C155.202 16.4618 154.175 16.0363 153.418 15.2793C152.661 14.5221 152.235 13.4947 152.235 12.4238C152.235 11.3531 152.661 10.3264 153.418 9.56934C154.175 8.81224 155.202 8.38683 156.272 8.38672Z" fill="#1F1F1F"/>
<path d="M110.818 0.810547C111.889 0.810584 112.916 1.23606 113.674 1.99316C114.431 2.75034 114.856 3.77789 114.856 4.84863C114.856 5.91944 114.431 6.94691 113.674 7.7041C112.916 8.46129 111.889 8.88668 110.818 8.88672C109.747 8.88669 108.72 8.46121 107.963 7.7041C107.206 6.94692 106.78 5.91938 106.78 4.84863C106.78 3.77783 107.205 2.75035 107.963 1.99316C108.72 1.23598 109.747 0.810579 110.818 0.810547Z" fill="#1F1F1F"/>
</svg>
